<svg width="4452" height="5524" viewBox="0 0 4452 5524" fill="none" xmlns="http://www.w3.org/2000/svg">
<path d="M3818.63 2992.96L3312.9 2238.5L3444.5 2600.23L3440.36 2657.41L3824.14 3457.35L3818.63 2992.96Z" fill="#646466" stroke="white" stroke-width="6"/>
<path d="M4045.31 2935.08L4015.68 2921.3L3876.5 3956.87L4241.68 3509.71L4045.31 2935.08Z" fill="#13161B" stroke="white" stroke-width="6"/>
<path d="M4215.49 2840.69L3817.25 2424.53L3998.46 2795.9L4044.62 2934.39L4241.68 3509.71L4398.08 3382.93C4299.95 3131.14 4259.49 3011.72 4215.49 2840.69Z" fill="#13161B" stroke="white" stroke-width="6"/>
<path d="M3312.9 2238.5V2202.67L3998.46 2913.72L4015.68 2921.3L3876.5 3957.56L3829.65 3880.39L3818.63 2992.96L3312.9 2238.5Z" fill="#13161B" stroke="white" stroke-width="6"/>
<path d="M4447 2919.92C4372.84 2674.33 4347.78 2489.01 4325.04 2095.19C4325.04 2095.19 4293.04 2159.08 4275.43 2201.3C4256.03 2247.8 4246 2274.35 4231.34 2322.56C4211.61 2387.42 4204.83 2425.26 4192.94 2491.69L4192.75 2492.74C4180.27 2562.46 4169.33 2672.57 4169.33 2672.57L4291.28 2835.87V2919.92H4447Z" fill="#13161B" stroke="white" stroke-width="6"/>
<path d="M4325.04 2095.19L3980.54 1544.68L4122.48 2027.67L4150.04 2057.29L4166.57 2080.72C4166.57 2080.72 4134.6 2163.26 4116.97 2217.14C4097.63 2276.23 4088.36 2309.89 4072.87 2370.1C4057.06 2431.55 4037.04 2528.57 4037.04 2528.57L4169.33 2673.26C4196.89 2403.67 4232.36 2278.87 4325.04 2095.19Z" fill="#646466" stroke="white" stroke-width="6"/>
<path d="M3726.99 1780.31C3690.47 1706.59 3616.75 1598.42 3616.75 1598.42C3828.8 1774.29 3945.53 1874.66 4149.35 2057.29L4037.04 2004.24L3782.8 1999.42C3782.8 1999.42 3785.44 1955.32 3769.02 1889.18C3758.04 1844.95 3747.22 1821.15 3726.99 1780.31Z" fill="#646466" stroke="white" stroke-width="6"/>
<path d="M3998.46 2795.9L3423.14 1867.13L3312.9 2080.72V2202.67L3998.46 2913.72L4045.31 2935.08L3998.46 2795.9Z" fill="#13161B" stroke="white" stroke-width="6"/>
<path d="M3248.13 1883.67C3296.34 1853.62 3379.04 1820.28 3379.04 1820.28L3297.05 2078.65L3299.12 2213.01C3299.12 2213.01 3273.45 2194.61 3257.09 2182.69C3232.21 2164.57 3217.75 2155.05 3193.7 2135.84C3169.26 2116.31 3154.31 2106.69 3133.07 2083.48C3099.03 2046.27 3095.86 2034.56 3095.86 2034.56L3116.53 1993.91C3116.53 1993.91 3147.88 1959.64 3170.28 1940.16C3198.62 1915.51 3216.25 1903.54 3248.13 1883.67Z" fill="#646466" stroke="white" stroke-width="6"/>
<path d="M2641.81 2139.97C2644.84 2119.19 2639.75 2086.23 2639.75 2086.23L2537.08 2237.81L2530.88 2297.07C2530.88 2297.07 2549.04 2327.03 2556.38 2348.05C2562.03 2364.26 2566.6 2373.61 2566.71 2390.77C2566.77 2399.98 2563.95 2414.2 2563.95 2414.2C2614.49 2582.9 2647.82 2665.31 2713.47 2790.39C2803.47 2811.19 2819.47 2822.14 2864.36 2857.91L2845.07 2781.43C2815.44 2757.32 2760.26 2698.2 2719.67 2634.68C2687.98 2585.07 2608.05 2436.93 2590.14 2374.23C2576.54 2326.64 2574.29 2297.07 2583.25 2263.31C2594.48 2220.98 2636.99 2173.05 2641.81 2139.97Z" fill="#B5B5B5" stroke="white" stroke-width="6"/>
<path d="M2968.4 2023.53C2985.37 2018.18 2994.04 2017.86 3008.36 2021.47C2975.12 2109.04 2937.52 2156.75 2871.94 2241.95C2779.08 2248.23 2734.95 2249.08 2670.06 2246.08C2670.06 2246.08 2686.36 2213.16 2701.76 2195.78C2712.11 2184.09 2717.62 2176.31 2731.38 2168.91C2752.61 2157.5 2768.62 2161.29 2792.7 2162.02C2818.97 2162.82 2858.85 2174.42 2858.85 2174.42C2858.85 2174.42 2878.88 2133.05 2894.68 2108.28C2908.66 2086.37 2916.17 2073.5 2933.95 2054.54C2946.33 2041.33 2968.4 2023.53 2968.4 2023.53Z" fill="#B5B5B5" stroke="white" stroke-width="6"/>
<path d="M2619.76 2022.15L2550.86 2085.54L2536.39 2239.19L2639.74 2085.54L2641.81 2016.64L2619.76 2022.15Z" fill="#13161B" stroke="white" stroke-width="6"/>
<path d="M2465.43 2100.01V1798.92L2537.08 1879.53C2500.44 1960.23 2509.75 2005.49 2551.55 2086.23L2530.88 2297.76L2465.43 2100.01Z" fill="#B5B5B5" stroke="white" stroke-width="6"/>
<path d="M2617.01 1103.23L2360.01 1598.42L2313.85 1690.06L2344.85 1730.02L2583.25 1438.57L2498.5 1447.53C2584.15 1310.49 2629.56 1226.25 2707.96 1068.58H2663.86L2617.01 1103.23Z" fill="#646466" stroke="white" stroke-width="6"/>
<path d="M2498.5 1447.53C2584.15 1310.49 2629.56 1226.25 2707.96 1068.58L3195.08 1769.29L3372.15 1783.76C3397.67 1794.75 3398.22 1802.88 3379.04 1820.28C3254.38 1873.79 3192.37 1908.87 3116.53 1993.91L3069.68 1882.98L3033.85 1876.78L2832.67 1705.21L3002.16 1526.07L2707.96 1426.17L2583.25 1438.57L2498.5 1447.53Z" fill="#13161B" stroke="white" stroke-width="6"/>
<path d="M2360.01 1598.42L2226.34 1430.3V1580.5L2312.47 1688.68L2360.01 1598.42Z" fill="#646466" stroke="white" stroke-width="6"/>
<path d="M2749.98 1898.13C2688.24 1910.87 2641.12 2017.33 2641.12 2017.33C2633.59 2068.77 2645.26 2112.41 2641.12 2142.73C2636.99 2173.05 2579.69 2232.87 2577.73 2297.76C2576.3 2345.57 2603.92 2412.82 2603.92 2412.82C2694.36 2607.7 2747.12 2693.25 2846.44 2782.81C2846.44 2782.81 2640.43 2423.15 2654.9 2294.31C2661.29 2237.45 2714.85 2177.21 2727.94 2170.65C2773.65 2147.71 2858.85 2174.78 2858.85 2174.78C2907.33 2078 2937.27 2038.23 2998.03 2004.93L2971.15 2009.06C2954.23 1984.27 2942.84 1972.58 2920.17 1954.63C2937.12 1945.82 2948.77 1935.4 2971.15 1912.6C2971.15 1912.6 2897.01 1948.89 2852.65 1927.76C2838.18 1920.87 2825.67 1902.32 2803.73 1898.13C2785.66 1894.69 2770.01 1894 2749.98 1898.13Z" fill="#13161B" stroke="white" stroke-width="6"/>
<path d="M2290.42 1264.25L2617.01 1054.11L2713.47 1041.7L2891.92 1129.9C3200.38 1293.31 3413.04 1436.96 3615.37 1597.72C3784.41 1732.03 3946.25 1878.28 4150.73 2057.98L3603.66 1479.91L3177.86 1163.66H3294.3V1138.85L3403.16 1000.36L2588.76 992.075C2575.26 1003.12 2561.49 1014.38 2547.42 1025.86L2290.42 1264.25Z" fill="#13161B" stroke="white" stroke-width="6"/>
<path d="M2713.47 1041.7L2891.92 1129.9C3200.38 1293.31 3413.04 1436.96 3615.37 1597.72C3752.61 1799.49 3796.09 1901.91 3779.35 2054.54C3592.3 1843.33 3408.9 1733.46 3085.53 1537.1L3371.47 1783.76L3195.08 1769.29L2707.96 1068.58H2663.86L2617.01 1054.11L2713.47 1041.7Z" fill="#13161B" stroke="white" stroke-width="6"/>
<path d="M2851.96 992.075H2588.76C2915.4 818.169 3095.5 719.684 3385.24 533.91L3443.81 603.499C3299.34 678.926 3134.86 813.249 2851.96 992.075Z" fill="#13161B" stroke="white" stroke-width="6"/>
<path d="M2588.76 992.075C2915.4 818.169 3095.5 719.684 3385.24 533.91L3553.36 436.071L3385.24 458.808L2588.76 992.075Z" fill="#D9D9D9"/>
<path d="M3443.81 603.499C3299.35 678.926 3134.86 813.249 2851.96 992.075L3443.81 1005.88L3421.6 983.139L3336.12 895.636L3287.99 846.372L3239.87 797.109L3463.79 635.193L3593.32 764.725L3735.26 692.38L3882.02 565.604L4003.97 635.193L3897.17 749.567L4103.87 764.725V515.307L3769.71 533.91L3443.81 603.499Z" fill="#13161B" stroke="white" stroke-width="6"/>
<path d="M3735.26 692.38L3593.33 764.725L3336.12 895.636L3421.6 983.139L3655.34 909.416L3822.77 880.478L3806.92 797.109L4103.88 764.725L3897.18 749.567L3814.5 745.433L3735.26 692.38Z" fill="#13161B" stroke="white" stroke-width="6"/>
<path d="M3814.49 745.433L3897.17 749.567L4004.66 634.504L3881.33 565.604L3735.26 692.38L3814.49 745.433Z" fill="#646466" stroke="white" stroke-width="6"/>
<path d="M3806.91 797.109L4103.87 764.725L3838.61 873.953L3822.76 880.478L3806.91 797.109Z" fill="#B5B5B5" stroke="white" stroke-width="6"/>
<path d="M4103.88 821.913V764.725L3838.61 873.953V1096.14L3937.14 994.281L4103.88 821.913Z" fill="#13161B" stroke="white" stroke-width="6"/>
<path d="M4103.87 952.823V821.913L3937.14 994.281C3865.21 1123.28 3813.08 1187 3709.77 1293.19C3819.39 1233.87 3881.57 1213.3 3992.95 1185.02C4025.06 1092.62 4051.97 1042.18 4103.87 952.823Z" fill="#13161B" stroke="white" stroke-width="6"/>
<path d="M3709.77 1293.19C3819.39 1233.87 3881.57 1213.3 3992.95 1185.02L4012.24 1250.47L3792.45 1359.33L3709.77 1293.19Z" fill="#13161B" stroke="white" stroke-width="6"/>
<path d="M3792.45 1359.33L4012.24 1250.47L4253.39 1675.59L3981.23 1544.68L3792.45 1359.33Z" fill="#13161B" stroke="white" stroke-width="6"/>
<path d="M3937.13 994.281C3865.21 1123.28 3813.07 1187 3709.76 1293.19L3478.95 1163.66L3414.87 1136.1L3725.61 1065.82V932.153L3839.99 872.899V1096.82L3937.13 994.281Z" fill="#13161B" stroke="white" stroke-width="6"/>
<path d="M3725.61 932.153L3839.98 872.899L3822.07 880.478L3656.02 909.416L3421.76 983.139L3443.12 1005.19H3399.71L3297.05 1136.1H3414.87L3725.61 1065.82V932.153Z" fill="#B5B5B5" stroke="white" stroke-width="6"/>
<path d="M3463.79 635.193L3239.87 797.109L3336.12 895.636L3593.33 764.726L3463.79 635.193Z" fill="#646466" stroke="white" stroke-width="6"/>
<path d="M2486.1 1000.36C2767.77 760.322 2932.71 629.205 3255.02 409.2L3197.15 361.659H3164.08L2721.05 441.583L2928.44 262.443L2857.47 214.213L2617.01 446.406L2633.54 729.586L2486.1 1000.36Z" fill="#B5B5B5" stroke="white" stroke-width="6"/>
<path d="M2721.05 441.583L3164.08 361.659L2995.96 204.567L2928.44 262.443L2721.05 441.583Z" fill="#13161B" stroke="white" stroke-width="6"/>
<path d="M2619.08 2022.84L2549.49 2086.23C2549.49 2086.23 2527.67 2047.15 2521.24 2016.64C2511.83 1972.03 2514.15 1940.54 2530.89 1898.13C2551.14 1846.85 2590.98 1835.33 2619.08 1787.89C2636.87 1757.87 2657.67 1707.28 2657.67 1707.28C2657.67 1707.28 2660.79 1756.52 2655.48 1797.54C2654.47 1805.32 2653.16 1812.8 2651.47 1819.59C2637.76 1874.6 2597.72 1888.49 2597.72 1948.43C2597.72 1969.93 2607.08 1995.56 2613.4 2010.44C2616.64 2018.05 2619.08 2022.84 2619.08 2022.84Z" fill="#646466" stroke="white" stroke-width="6"/>
<path d="M2651.46 1819.59C2637.76 1874.6 2597.72 1888.49 2597.72 1948.43C2597.72 1969.93 2607.07 1995.56 2613.4 2010.44L2818.89 1707.28L2655.47 1797.54C2654.46 1805.32 2653.15 1812.8 2651.46 1819.59Z" fill="#13161B" stroke="white" stroke-width="6"/>
<path d="M2902.93 2013.89C2902.93 1998.66 2889.84 1979.17 2876.06 1985.64C2867.66 1989.58 2864.35 2006.31 2864.35 2006.31C2864.35 2006.31 2841.31 2050.88 2814.05 2058.67C2789.54 2065.67 2776.86 2058.67 2749.97 2064.18C2724.78 2069.35 2703.92 2077.27 2705.88 2095.19C2708.38 2118.11 2728.86 2125.18 2749.97 2134.46C2771.08 2143.74 2794.97 2140.74 2825.07 2127.57C2873.69 2106.3 2902.93 2040.07 2902.93 2013.89Z" fill="#F8CBA1" stroke="white" stroke-width="6"/>
<path d="M2826.46 1978.75C2832.66 1975.3 2833.06 1967.03 2829.91 1958.77C2827.8 1953.25 2808.42 1958.63 2792.02 1966.35C2776.17 1973.8 2769.97 1984.26 2764.45 1992.53C2760.32 1998.72 2753.5 2008.75 2760.32 2019.4C2765.18 2026.98 2783.75 2030.51 2792.01 2028.36C2802.64 2025.59 2808.51 2029.24 2813.37 2019.4C2818.03 2009.99 2824.93 1999.18 2816.82 1992.53C2812.13 1988.68 2804.22 1994.59 2801.66 1989.08C2800.3 1986.15 2800.77 1983.92 2801.66 1980.81C2802.84 1976.68 2818.27 1983.3 2826.46 1978.75Z" fill="#F8CBA1" stroke="white" stroke-width="6"/>
<path d="M2902.93 2013.89C2902.93 1998.66 2889.84 1979.17 2876.06 1985.64C2867.66 1989.58 2864.34 2006.31 2864.34 2006.31C2864.34 2006.31 2841.31 2050.88 2814.05 2058.67C2789.54 2065.67 2776.85 2058.67 2749.97 2064.18C2724.77 2069.35 2703.92 2077.27 2705.87 2095.19C2708.37 2118.11 2728.86 2125.18 2749.97 2134.46C2771.08 2143.74 2794.97 2140.74 2825.07 2127.57C2873.69 2106.3 2902.93 2040.07 2902.93 2013.89Z" fill="#F2F1F1" stroke="white" stroke-width="6"/>
<path d="M2826.46 1978.75C2832.66 1975.3 2833.06 1967.03 2829.91 1958.77C2827.8 1953.25 2808.42 1958.63 2792.02 1966.35C2776.17 1973.8 2769.97 1984.26 2764.45 1992.53C2760.32 1998.72 2753.5 2008.75 2760.32 2019.4C2765.18 2026.98 2783.75 2030.51 2792.01 2028.36C2802.64 2025.59 2808.51 2029.24 2813.37 2019.4C2818.03 2009.99 2824.93 1999.18 2816.82 1992.53C2812.13 1988.68 2804.22 1994.59 2801.66 1989.08C2800.3 1986.15 2800.77 1983.92 2801.66 1980.81C2802.84 1976.68 2818.27 1983.3 2826.46 1978.75Z" fill="#F2F1F1" stroke="white" stroke-width="6"/>
<path d="M3301.65 1181.65C3295.81 1178.44 3289.91 1175.19 3283.96 1171.93C3284.04 1170.77 3290.37 1174.38 3301.65 1181.65C3563.54 1325.99 3711.99 1420.06 3947.47 1530.9C3947.47 1530.9 3834.8 1510.4 3737.32 1459.93C3592.86 1385.12 3366.19 1223.31 3301.65 1181.65Z" fill="#13161B"/>
<path d="M3283.96 1171.93C3556.97 1321.81 3706.74 1417.58 3947.47 1530.9C3947.47 1530.9 3834.8 1510.4 3737.32 1459.93C3567.63 1372.06 3284.52 1164.14 3283.96 1171.93Z" stroke="white" stroke-width="6"/>
<path d="M2530.88 2297.07L2466.12 2102.08L2398.59 2281.91L2226.34 2430.73L2401.35 2551.31L2507.46 2673.26C2507.46 2673.26 2567 2419.22 2566.71 2393.53C2566.26 2353.34 2530.88 2297.07 2530.88 2297.07Z" fill="#B5B5B5" stroke="white" stroke-width="6"/>
<path d="M2564.08 2414.2C2614.61 2582.9 2647.94 2665.31 2713.59 2790.39L2660.42 2786.26C2660.42 2786.26 2663.07 2751.24 2650.08 2735.96C2641.02 2725.31 2632.91 2720.08 2619.08 2718.05C2604.81 2715.95 2596.42 2721.14 2583.25 2727C2551.73 2741.04 2524.68 2793.15 2524.68 2793.15L2507.57 2777.3C2511.53 2736.67 2507.57 2707.71 2507.57 2673.26C2507.58 2637.55 2552.24 2470.69 2564.08 2414.2Z" fill="#F2F1F1" stroke="white" stroke-width="6"/>
<path d="M2271.13 2813.82C2254.04 2817.55 2226.34 2813.82 2226.34 2813.82V2872.38C2226.34 2872.38 2256.03 2875.66 2274.57 2872.38C2301.37 2867.66 2312.98 2854.24 2337.96 2843.45C2354.02 2836.51 2362.58 2831.34 2379.3 2826.22C2396.36 2821 2406.26 2816.57 2424.09 2817.26C2439.02 2817.84 2447.7 2820.02 2461.29 2826.22C2474.81 2832.38 2481.48 2838.08 2492.3 2848.27C2504.02 2859.3 2510.9 2880.65 2517.79 2880.65C2524.68 2880.65 2533.81 2862.86 2542.6 2850.34C2554.63 2833.17 2557.06 2820.86 2568.78 2803.48C2580.54 2786.02 2585.22 2773.42 2602.54 2761.45C2614.14 2753.44 2627.34 2742.16 2635.61 2746.98C2643.85 2751.79 2642.51 2760.7 2640.46 2774.39L2640.43 2774.54C2638.37 2788.33 2625.6 2805.98 2616.32 2826.22C2599.75 2862.35 2596.02 2885.51 2574.98 2919.24C2562.36 2939.46 2556.49 2952.56 2538.46 2968.15C2512.97 2990.2 2474.31 2999.1 2434.42 3021.21C2398.54 3041.09 2374.65 3047.5 2344.16 3074.95C2319.71 3096.96 2313.72 3116.5 2291.11 3140.41C2269.49 3163.27 2241.5 3201.73 2241.5 3214.13V3360.2C2241.5 3367.78 2270.44 3376.73 2282.15 3381.56C2293.87 3386.38 2353.21 3419.16 2399.28 3442.19L2400.98 3443.04C2432.33 3458.71 2450.42 3467.75 2482.65 3482.84C2521.6 3501.07 2544.94 3508.09 2583.25 3527.62C2609.86 3541.19 2637.68 3573.79 2650.08 3564.83C2662.28 3556.02 2655.57 3515.8 2650.35 3484.43L2650.08 3482.84C2644.25 3447.83 2633.28 3429.93 2619.08 3397.4C2606.65 3368.95 2598.55 3353.45 2583.25 3326.44C2565.12 3294.42 2532.26 3247.2 2532.26 3247.2C2532.26 3247.2 2552.27 3225.93 2566.71 3214.13C2595.83 3190.32 2616.25 3182.35 2650.08 3165.9C2693.27 3144.9 2723.5 3146.41 2765.14 3122.49C2806.94 3098.48 2826.67 3078.56 2860.91 3044.63C2885.57 3020.21 2919.48 2977.8 2919.48 2977.8C2901.52 2929.45 2891.1 2888.23 2863.67 2857.91C2863.67 2857.91 2855.95 2930.76 2836.11 2955.75C2813.14 2984.69 2787.61 2989.13 2752.05 2999.16C2698.31 3014.32 2662.28 3017.26 2611.5 3044.63C2574.68 3064.47 2524.68 3107.33 2524.68 3107.33C2574.93 2975.15 2604.87 2904.77 2660.42 2786.26C2660.42 2786.26 2663.07 2751.24 2650.08 2735.96C2641.02 2725.31 2632.91 2720.08 2619.08 2718.05C2604.81 2715.95 2596.42 2721.14 2583.25 2727C2551.73 2741.04 2524.68 2793.15 2524.68 2793.15L2507.46 2777.3C2507.46 2777.3 2480.67 2760.42 2462.67 2751.12C2446.63 2742.83 2431.67 2732.18 2420.64 2731.83C2406.86 2731.38 2388.15 2749.18 2367.59 2760.76C2348.89 2771.3 2338.85 2777.98 2320.05 2788.33C2301.17 2798.71 2292.18 2809.23 2271.13 2813.82Z" fill="#F2F1F1" stroke="white" stroke-width="6"/>
<path d="M2583.25 3527.62C2609.86 3541.19 2637.68 3573.79 2650.08 3564.83C2650.08 3564.83 2684.65 3553.6 2705.89 3544.16C2732.18 3532.47 2746.63 3524.86 2770.66 3509.02C2797.81 3491.12 2811.9 3479.12 2835.42 3456.66C2842.03 3450.35 2847.82 3446.32 2851.96 3440.12C2860.23 3427.72 2867.47 3414.95 2876.07 3398.09C2883.73 3383.08 2887.28 3374.28 2893.99 3358.82C2895.62 3355.06 2898.12 3349.17 2898.12 3349.17L2900.19 3351.24V3342.97C2900.19 3342.97 2906.07 3328 2909.14 3318.17C2913.95 3302.85 2915.6 3293.94 2918.79 3278.21C2920.59 3269.36 2921.59 3264.39 2922.93 3255.47C2924.85 3242.63 2925.25 3235.33 2926.37 3222.4C2927.35 3211.11 2927.76 3204.77 2928.44 3193.46C2929.1 3182.43 2929.82 3165.21 2929.82 3165.21L3162.01 2777.3L3334.95 3136.96L3208.17 3203.79L3568.52 4096.74C3568.52 4096.74 3092.42 3499.38 3034.54 3453.21C3006.6 3430.93 2952.55 3412.56 2952.55 3412.56L2964.27 4279.33L2867.12 4045.07C2867.12 4045.07 2822.35 3990.95 2798.9 3952.74C2765.93 3899 2746.4 3827 2715.54 3745.35C2700.04 3704.34 2699.1 3677.77 2676.95 3639.93C2660.42 3611.68 2589.81 3584.3 2530.19 3555.87C2489.69 3536.56 2467.42 3523.43 2424.09 3511.78C2362.59 3495.24 2325.16 3500.23 2261.48 3499.38C2247.76 3499.19 2226.34 3499.38 2226.34 3499.38V3223.77C2226.34 3223.77 2233.79 3210.27 2238.75 3201.73C2247.78 3186.16 2251.93 3176.75 2262.86 3162.45C2273.61 3148.39 2285.7 3145.09 2293.87 3129.38C2299.44 3118.66 2302.82 3099.75 2302.82 3099.75C2302.82 3099.75 2298.07 3049.12 2302.82 3021.21C2306.22 3001.26 2310.32 2992.83 2320.05 2977.11C2331.96 2957.86 2343.32 2950.28 2360.7 2935.77C2377.95 2921.38 2389.24 2915.38 2408.24 2903.39C2418.35 2897.01 2426.21 2896.22 2434.42 2887.54C2439.35 2882.34 2446.27 2879.39 2444.76 2872.38C2442.96 2864.07 2432.47 2866.96 2424.09 2865.49C2414.28 2863.77 2389.09 2867.81 2379.3 2869.63C2320.05 2880.65 2285.6 2919.24 2262.86 2942.66C2249.81 2956.11 2242.72 2972.58 2238.75 2990.89C2231.86 3022.59 2226.34 3136.27 2226.34 3136.27V2872.38C2226.34 2872.38 2256.03 2875.65 2274.57 2872.38C2301.37 2867.66 2312.98 2854.24 2337.96 2843.45C2354.02 2836.51 2362.58 2831.34 2379.3 2826.22C2396.36 2821 2406.26 2816.57 2424.09 2817.26C2439.02 2817.84 2447.7 2820.02 2461.29 2826.22C2474.81 2832.38 2481.48 2838.08 2492.3 2848.27C2504.02 2859.3 2510.9 2880.65 2517.79 2880.65C2524.68 2880.65 2533.81 2862.86 2542.6 2850.34C2554.63 2833.17 2557.06 2820.86 2568.78 2803.48C2580.54 2786.02 2585.22 2773.42 2602.54 2761.45C2614.14 2753.44 2627.34 2742.16 2635.61 2746.98C2643.85 2751.79 2642.51 2760.7 2640.46 2774.39L2640.43 2774.54C2638.37 2788.33 2625.6 2805.98 2616.32 2826.22C2599.75 2862.35 2596.02 2885.51 2574.98 2919.24C2562.36 2939.46 2556.49 2952.56 2538.46 2968.15C2512.97 2990.2 2474.31 2999.1 2434.42 3021.21C2398.54 3041.09 2370.34 3051.38 2344.16 3074.95C2317.98 3098.52 2312.73 3117.54 2291.11 3140.41C2269.49 3163.27 2241.5 3201.73 2241.5 3214.13V3360.2C2241.5 3367.78 2270.44 3376.73 2282.15 3381.56C2293.87 3386.38 2353.21 3419.16 2399.28 3442.19L2400.98 3443.04C2432.32 3458.71 2450.42 3467.75 2482.65 3482.84C2521.6 3501.07 2544.94 3508.09 2583.25 3527.62Z" fill="#13161B" stroke="white" stroke-width="6"/>
<path d="M2261.48 3499.38C2325.16 3500.23 2391.71 3496.99 2424.09 3511.78C2561.24 3574.4 2613.9 3630.07 2644.57 3783.24H2551.56C2551.56 3783.24 2548.37 3731.34 2537.09 3700.56C2528.71 3677.74 2522.35 3665.18 2508.15 3645.44C2488.92 3618.72 2474.69 3605.11 2446.83 3587.57C2420.15 3570.77 2402.28 3565.7 2371.73 3557.94C2337.89 3549.34 2317.73 3549.76 2282.84 3548.29C2260.8 3547.37 2226.34 3548.29 2226.34 3548.29V3499.38C2226.34 3499.38 2247.76 3499.19 2261.48 3499.38Z" fill="#D9D9D9" stroke="white" stroke-width="6"/>
<path d="M2537.09 3700.56C2548.37 3731.34 2551.56 3783.24 2551.56 3783.24V4082.27L2479.9 3914.84L2362.08 3790.13L2226.34 3548.29C2226.34 3548.29 2260.8 3547.37 2282.84 3548.29C2317.73 3549.76 2337.89 3549.34 2371.73 3557.94C2402.28 3565.7 2420.15 3570.77 2446.83 3587.57C2474.69 3605.11 2488.92 3618.72 2508.15 3645.44C2522.35 3665.18 2528.71 3677.74 2537.09 3700.56Z" fill="#F2F1F1" stroke="white" stroke-width="6"/>
<path d="M2362.08 3790.13L2226.34 3548.29V3804.6H2375.75L2362.08 3790.13Z" fill="#D9D9D9" stroke="white" stroke-width="6"/>
<path d="M2375.75 3804.6H2226.34V3902.44L2259.42 4219.38L2409.62 3840.43L2375.75 3804.6Z" fill="#D9D9D9"/>
<path d="M2362.08 3790.13L2375.75 3804.6M2375.75 3804.6H2226.34V3902.44L2259.42 4219.38L2409.62 3840.43L2375.75 3804.6Z" stroke="white" stroke-width="6"/>
<path d="M2409.62 3840.43L2334.52 4029.91L2352.43 4140.84C2385.45 4074.61 2400.53 4025.81 2428.91 3943.78C2445.45 4010.14 2455.03 4045.19 2473.69 4096.05C2482.49 4030.02 2482.99 3991.06 2482.65 3921.04L2479.9 3914.84L2409.62 3840.43Z" fill="#B5B5B5" stroke="white" stroke-width="6"/>
<path d="M2644.57 3783.24C2613.9 3630.07 2561.24 3574.4 2424.09 3511.78C2576.94 3563.2 2641.76 3616.2 2694.87 3783.24H2644.57Z" fill="#646466" stroke="white" stroke-width="6"/>
<path d="M2798.9 3952.74C2822.35 3990.95 2867.11 4045.07 2867.11 4045.07C2733.03 3990.28 2669.13 3923.94 2551.55 3817.01V3783.24H2694.87C2655.76 3660.23 2610.29 3599.06 2527.99 3554.82C2515.81 3548.99 2505.26 3543.72 2495.23 3538.89C2473.84 3529.43 2450.25 3520.58 2424.09 3511.78C2453.38 3519.66 2473.05 3528.21 2495.23 3538.89C2506.77 3543.99 2517.67 3549.27 2527.99 3554.82C2528.72 3555.17 2529.45 3555.52 2530.19 3555.87C2589.81 3584.3 2660.41 3611.68 2676.95 3639.93C2699.1 3677.77 2700.04 3704.34 2715.53 3745.35C2746.39 3827 2765.93 3899 2798.9 3952.74Z" fill="#B5B5B5" stroke="white" stroke-width="6"/>
<path d="M2952.55 3412.56C2952.55 3412.56 3006.6 3430.93 3034.54 3453.21C3054.62 3469.23 3125.04 3551.59 3208.45 3652.33L2964.26 4279.33L2952.55 3412.56Z" fill="#646466" stroke="white" stroke-width="6"/>
<path d="M2964.27 4279.33L3568.52 4096.74C3568.52 4096.74 3365.47 3841.97 3208.46 3652.33L2964.27 4279.33Z" fill="#646466" stroke="white" stroke-width="6"/>
<path d="M2860.92 3044.63C2885.57 3020.21 2919.48 2977.8 2919.48 2977.8C2944.36 3237.79 2924.14 3320.56 2850.58 3442.88C2850.58 3442.88 2848.43 3413.72 2830.6 3392.58C2809.21 3367.22 2783.47 3370.86 2752.05 3360.2C2688.39 3338.59 2583.25 3326.44 2583.25 3326.44C2565.12 3294.42 2532.26 3247.2 2532.26 3247.2C2532.26 3247.2 2552.27 3225.93 2566.71 3214.13C2595.83 3190.32 2616.26 3182.35 2650.08 3165.9C2693.27 3144.9 2723.5 3146.41 2765.14 3122.49C2806.94 3098.48 2826.67 3078.56 2860.92 3044.63Z" fill="#646466" stroke="white" stroke-width="6"/>
<path d="M2713.47 2790.39C2803.47 2811.19 2819.47 2822.14 2864.36 2857.91L2860.91 2877.9C2860.91 2877.9 2855.95 2930.76 2836.11 2955.75C2813.14 2984.69 2787.61 2989.13 2752.05 2999.16C2698.31 3014.32 2662.28 3017.26 2611.49 3044.63C2574.68 3064.47 2524.68 3107.33 2524.68 3107.33C2574.93 2975.15 2604.87 2904.77 2660.41 2786.26L2713.47 2790.39Z" fill="#D9D9D9" stroke="white" stroke-width="6"/>
<path d="M2997.34 2004.93L2971.84 2009.06C3012.09 1962.2 3031.32 1934.41 3055.21 1880.22L3069.68 1882.98L3116.53 1993.22L3095.86 2034.56C3124.02 2087.59 3187.36 2131.8 3292.23 2208.19C3250.01 2278.34 3220.86 2312.27 3162.7 2366.66L3015.25 2115.17L2970.46 2225.75L2925.68 2336.34L2883.65 2405.93C2886.43 2341.67 2885.83 2305.7 2871.94 2241.95C2952.85 2139.16 2982.01 2091.36 3008.36 2021.47C3008.36 2021.47 2996.9 2018.36 2989.07 2018.71C2981.69 2019.04 2969.78 2022.84 2969.78 2022.84L2997.34 2004.93Z" fill="#B5B5B5" stroke="white" stroke-width="6"/>
<path d="M3015.25 2115.17L2925.68 2336.34C2946.1 2310.01 2957.6 2295.52 2980.11 2284.66C3048.54 2328.94 3088.02 2349.02 3162.7 2366.66L3015.25 2115.17Z" fill="#646466" stroke="white" stroke-width="6"/>
<path d="M3312.9 1676.28C3225.61 1619.96 3086.22 1537.1 3086.22 1537.1L3371.47 1783.76C3371.47 1783.76 3380.68 1786.73 3385.25 1790.65C3388.88 1793.77 3392.29 1795.54 3392.82 1800.3C3393.27 1804.27 3391.38 1806.48 3389.38 1809.94C3386.52 1814.88 3379.04 1820.28 3379.04 1820.28L3297.05 2078.65L3300.5 2254.35L3184.75 2591.27L3162.01 2777.3L3334.95 3137.65C3394.06 2957.72 3430.66 2836.72 3444.5 2600.23L3312.9 2238.5V2080.72L3423.14 1867.13C3656.44 2134.52 3790.31 2280.26 4037.04 2529.26C4077.16 2337.06 4105.89 2239.32 4166.57 2080.72L4150.04 2057.29L4037.04 2004.24L3782.8 1999.42C3782.75 2020.7 3782.34 2032.61 3779.35 2053.85C3779.35 2053.85 3714.95 1983.84 3670.49 1942.23C3606 1881.87 3566.44 1851.54 3495.49 1798.92C3426.49 1747.75 3385.08 1722.84 3312.9 1676.28Z" fill="#13161B" stroke="white" stroke-width="6"/>
<path d="M3292.23 2208.19C3250.01 2278.34 3220.86 2312.27 3162.7 2366.66L3162.01 2777.3L3184.74 2591.27L3300.5 2254.35L3299.81 2213.01L3292.23 2208.19Z" fill="#646466" stroke="white" stroke-width="6"/>
<path d="M3980.54 1544.68L3630.53 1507.47L4123.17 2029.04L3980.54 1544.68Z" fill="#646466" stroke="white" stroke-width="6"/>
<path d="M3998.46 2795.9L3423.14 1867.13L3693.23 2170.29L3998.46 2795.9Z" fill="#646466" stroke="white" stroke-width="6"/>
<path d="M3824.14 3456.66L3440.37 2658.1C3440.37 2658.1 3433.1 2738.58 3425.21 2789.7C3416.72 2844.72 3411.05 2875.54 3397.65 2929.57C3390.8 2957.19 3386.26 2972.51 3378.36 2999.85C3365.83 3043.18 3343.91 3110.09 3343.91 3110.09L3829.65 3880.39L3824.14 3456.66Z" fill="#13161B" stroke="white" stroke-width="6"/>
<path d="M2871.94 2241.95C2794.14 2247.62 2750.02 2248.88 2670.06 2246.08C2670.06 2246.08 2691.95 2258.25 2703.82 2268.82C2723.57 2286.39 2728.95 2301.61 2743.1 2323.94C2762.69 2354.85 2771.2 2373.7 2787.19 2406.62C2810.62 2454.85 2811.02 2473.45 2821.64 2517.55C2830.77 2555.44 2845.07 2780.75 2845.07 2780.75L2863.67 2857.23L2883.65 2403.86C2887.29 2339.62 2885.09 2304.12 2871.94 2241.95Z" fill="#D9D9D9" stroke="white" stroke-width="6"/>
<path d="M2925.69 2336.34L2883.66 2405.93L2868.17 2755.25L3162.7 2366.66C3088.02 2349.02 3048.55 2328.94 2980.12 2284.66C2957.6 2295.52 2946.11 2310.01 2925.69 2336.34Z" fill="#B5B5B5" stroke="white" stroke-width="6"/>
<path d="M2845.07 2780.75C2845.07 2780.75 2636.9 2422.71 2654.91 2294.31C2657.83 2273.49 2661 2262.91 2670.06 2246.08C2670.06 2246.08 2691.95 2258.25 2703.83 2268.82C2723.57 2286.39 2728.95 2301.61 2743.1 2323.94C2762.69 2354.85 2771.21 2373.7 2787.2 2406.62C2810.62 2454.85 2811.02 2473.45 2821.65 2517.55C2830.78 2555.44 2845.07 2780.75 2845.07 2780.75Z" fill="#B5B5B5" stroke="white" stroke-width="6"/>
<path d="M2868.49 2754.56L3162.7 2366.66C3075.88 2571.29 2995.27 2653.97 2884.34 2888.23C2877.5 2875.34 2872.92 2868.44 2863.67 2856.54L2868.49 2754.56Z" fill="#D9D9D9" stroke="white" stroke-width="6"/>
<path d="M3162.7 2366.66V2777.3L2929.81 3165.21C2928.44 3093.96 2926.53 3053.19 2919.48 2977.8C2906.49 2939.35 2899.1 2918.31 2884.34 2888.23C2995.27 2653.97 3075.88 2571.29 3162.7 2366.66Z" fill="#13161B" stroke="white" stroke-width="6"/>
<path d="M2643.88 3120.42C2744.62 3152.76 2865.19 3199.71 2922.24 3250.65V3259.6C2863.66 3208.53 2816.82 3194.84 2698.31 3147.98L2643.88 3120.42Z" fill="#13161B"/>
<path d="M2620.45 3221.71C2492.3 3193.46 2502.63 3207.51 2453.02 3183.12C2486.78 3207.93 2521.39 3214.34 2592.2 3226.53C2676.26 3241 2759.4 3270.41 2816.82 3296.12C2871.53 3320.62 2883.04 3335.24 2900.19 3350.55V3343.66C2858.16 3291.3 2748.61 3249.96 2620.45 3221.71Z" fill="#13161B"/>
<path d="M2461.29 3305.08C2461.29 3305.08 2535.86 3319.19 2583.94 3326.44C2607.04 3329.92 2620.15 3330.83 2643.19 3334.7C2666.45 3338.62 2679.46 3341.1 2702.44 3346.42C2731.53 3353.14 2747.71 3357.8 2775.93 3365.93L2777.54 3366.4C2791.29 3370.36 2806.88 3374.02 2812.68 3377.42C2818.49 3380.82 2826.46 3387.76 2826.46 3387.76C2749.84 3449.24 2710.42 3483.58 2657.66 3544.16C2636.75 3416.16 2568.86 3379.27 2461.29 3305.08Z" fill="#646466" stroke="white" stroke-width="6"/>
<path d="M2648.7 3565.52C2742.92 3534.34 2785.73 3505.42 2851.27 3441.5C2845.45 3413.77 2839.74 3402.47 2826.47 3387.76C2758.19 3440.78 2720.88 3474.13 2656.97 3544.16C2656.49 3555.42 2654.94 3560.39 2648.7 3565.52Z" fill="#646466" stroke="white" stroke-width="6"/>
<path d="M3208.17 3203.79L3334.95 3136.96C3373.82 3444.19 3512.53 3637.38 3846.88 3997.52L3568.52 4435.73V4096.74L3208.17 3203.79Z" fill="#13161B" stroke="white" stroke-width="6"/>
<path d="M2964.95 5036.54V4278.64L2732.07 4716.15L2964.95 5036.54Z" fill="#13161B" stroke="white" stroke-width="6"/>
<path d="M2964.95 5035.16C3234.17 4667.11 3383.21 4460.85 3568.52 4096.74L2964.27 4279.33L2964.95 5035.16Z" fill="#13161B" stroke="white" stroke-width="6"/>
<path d="M633.37 2992.96L1139.1 2238.5L1007.5 2600.23L1011.63 2657.41L627.858 3457.35L633.37 2992.96Z" fill="#646466" stroke="white" stroke-width="6"/>
<path d="M406.689 2935.08L436.316 2921.3L575.494 3956.87L210.323 3509.71L406.689 2935.08Z" fill="#13161B" stroke="white" stroke-width="6"/>
<path d="M236.505 2840.69L634.748 2424.53L453.54 2795.9L407.377 2934.39L210.323 3509.71L53.9192 3382.93C152.05 3131.14 192.504 3011.72 236.505 2840.69Z" fill="#13161B" stroke="white" stroke-width="6"/>
<path d="M1139.1 2238.5V2202.67L453.54 2913.72L436.315 2921.3L575.494 3957.56L622.346 3880.39L633.37 2992.96L1139.1 2238.5Z" fill="#13161B" stroke="white" stroke-width="6"/>
<path d="M5.00006 2919.92C79.159 2674.33 104.216 2489.01 126.953 2095.19C126.953 2095.19 158.951 2159.08 176.562 2201.3C195.961 2247.8 205.993 2274.35 220.658 2322.56C240.386 2387.42 247.162 2425.26 259.054 2491.69L259.242 2492.74C271.722 2562.46 282.668 2672.57 282.668 2672.57L160.715 2835.87V2919.92H5.00006Z" fill="#13161B" stroke="white" stroke-width="6"/>
<path d="M126.954 2095.19L471.455 1544.68L329.521 2027.67L301.961 2057.29L285.424 2080.72C285.424 2080.72 317.4 2163.26 335.033 2217.14C354.369 2276.23 363.639 2309.89 379.129 2370.1C394.938 2431.55 414.957 2528.57 414.957 2528.57L282.668 2673.26C255.109 2403.67 219.641 2278.87 126.954 2095.19Z" fill="#646466" stroke="white" stroke-width="6"/>
<path d="M725.008 1780.31C761.525 1706.59 835.248 1598.42 835.248 1598.42C623.198 1774.29 506.465 1874.66 302.649 2057.29L414.957 2004.24L669.199 1999.42C669.199 1999.42 666.554 1955.32 682.979 1889.18C693.961 1844.95 704.78 1821.15 725.008 1780.31Z" fill="#646466" stroke="white" stroke-width="6"/>
<path d="M453.54 2795.9L1028.86 1867.13L1139.1 2080.72V2202.67L453.54 2913.72L406.688 2935.08L453.54 2795.9Z" fill="#13161B" stroke="white" stroke-width="6"/>
<path d="M1203.86 1883.67C1155.66 1853.62 1072.95 1820.28 1072.95 1820.28L1154.94 2078.65L1152.88 2213.01C1152.88 2213.01 1178.55 2194.61 1194.91 2182.69C1219.79 2164.57 1234.25 2155.05 1258.29 2135.84C1282.74 2116.31 1297.69 2106.69 1318.93 2083.48C1352.96 2046.27 1356.13 2034.56 1356.13 2034.56L1335.46 1993.91C1335.46 1993.91 1304.12 1959.64 1281.72 1940.16C1253.37 1915.51 1235.74 1903.54 1203.86 1883.67Z" fill="#646466" stroke="white" stroke-width="6"/>
<path d="M1810.18 2139.97C1807.15 2119.19 1812.25 2086.23 1812.25 2086.23L1914.91 2237.81L1921.11 2297.07C1921.11 2297.07 1902.96 2327.03 1895.62 2348.05C1889.96 2364.26 1885.39 2373.61 1885.29 2390.77C1885.23 2399.98 1888.04 2414.2 1888.04 2414.2C1837.51 2582.9 1804.18 2665.31 1738.53 2790.39C1648.53 2811.19 1632.52 2822.14 1587.64 2857.91L1606.93 2781.43C1636.56 2757.32 1691.74 2698.2 1732.33 2634.68C1764.02 2585.07 1843.95 2436.93 1861.86 2374.23C1875.46 2326.64 1877.71 2297.07 1868.75 2263.31C1857.52 2220.98 1815.01 2173.05 1810.18 2139.97Z" fill="#B5B5B5" stroke="white" stroke-width="6"/>
<path d="M1483.6 2023.53C1466.63 2018.18 1457.96 2017.86 1443.64 2021.47C1476.88 2109.04 1514.48 2156.75 1580.06 2241.95C1672.92 2248.23 1717.05 2249.08 1781.94 2246.08C1781.94 2246.08 1765.64 2213.16 1750.24 2195.78C1739.89 2184.09 1734.38 2176.31 1720.62 2168.91C1699.39 2157.5 1683.38 2161.29 1659.3 2162.02C1633.03 2162.82 1593.15 2174.42 1593.15 2174.42C1593.15 2174.42 1573.12 2133.05 1557.32 2108.28C1543.34 2086.37 1535.83 2073.5 1518.05 2054.54C1505.67 2041.33 1483.6 2023.53 1483.6 2023.53Z" fill="#B5B5B5" stroke="white" stroke-width="6"/>
<path d="M1832.23 2022.15L1901.13 2085.54L1915.6 2239.19L1812.25 2085.54L1810.18 2016.64L1832.23 2022.15Z" fill="#13161B" stroke="white" stroke-width="6"/>
<path d="M1986.57 2100.01V1798.92L1914.91 1879.53C1951.56 1960.23 1942.25 2005.49 1900.45 2086.23L1921.12 2297.76L1986.57 2100.01Z" fill="#B5B5B5" stroke="white" stroke-width="6"/>
<path d="M2225.65 325.831L2314.54 232.816L2391.71 325.831C2503.53 225.856 2561.2 157.618 2650.08 2C2642.44 59.1866 2632.43 111.004 2618.42 161C2567.37 343.184 2463.14 501.194 2226.35 806.755C1989.55 501.194 1884.9 343.184 1833.66 161C1819.6 111.004 1809.56 59.1866 1801.92 2C1890.8 157.618 1948.48 225.856 2060.29 325.831L2137.46 232.816L2225.65 325.831Z" fill="#13161B"/>
<path d="M2225.65 325.831L2314.54 232.816L2391.71 325.831C2503.53 225.856 2561.2 157.618 2650.08 2C2642.44 59.1866 2632.43 111.004 2618.42 161M2225.65 325.831L2137.46 232.816L2060.29 325.831C1948.48 225.856 1890.8 157.618 1801.92 2C1809.56 59.1866 1819.6 111.004 1833.66 161M2225.65 325.831L2226.15 671.5M2226.35 806.755L2226.15 671.5M2226.35 806.755C2463.14 501.194 2567.37 343.184 2618.42 161M2226.35 806.755C1989.55 501.194 1884.9 343.184 1833.66 161M2226.15 671.5L2618.42 161M2226.15 671.5L1833.66 161" stroke="white" stroke-width="6"/>
<path d="M2226.35 806.755C2528.13 417.34 2614.59 267.571 2650.08 2C2633.35 153.24 2609.86 295.176 2585.97 409.2C2561.64 525.296 2536.91 612.456 2518.48 651.04L2226.35 1089.93L1933.52 651.04C1915.09 612.456 1890.36 525.296 1866.03 409.2C1842.14 295.176 1818.65 153.24 1801.92 2C1837.42 267.571 1924.57 417.34 2226.35 806.755Z" fill="#D9D9D9" stroke="white" stroke-width="6"/>
<path d="M2518.48 651.04L2226.34 1089.93V1222.22L2603.23 696.514L2617.01 446.406L2585.97 409.2C2561.64 525.296 2536.9 612.456 2518.48 651.04Z" fill="#13161B"/>
<path d="M1933.52 651.04L2225.65 1089.93V1222.22L1848.77 696.514L1834.99 446.406L1866.03 409.2C1890.36 525.296 1915.09 612.456 1933.52 651.04Z" fill="#13161B"/>
<path d="M2518.48 651.04L2226.34 1089.93V1222.22L2603.23 696.514L2617.01 446.406L2585.97 409.2C2561.64 525.296 2536.9 612.456 2518.48 651.04Z" stroke="white" stroke-width="6"/>
<path d="M1933.52 651.04L2225.65 1089.93V1222.22L1848.77 696.514L1834.99 446.406L1866.03 409.2C1890.36 525.296 1915.09 612.456 1933.52 651.04Z" stroke="white" stroke-width="6"/>
<path d="M2603.23 696.514L2226.35 1222.22L1848.77 696.514L1834.99 446.406L1818.46 729.586L1965.9 1000.36C1684.23 760.322 1519.29 629.205 1196.98 409.2H1196.97C1472.56 614.607 1601.53 777.874 1863.24 992.075C1876.74 1003.12 1890.51 1014.38 1904.58 1025.86L2161.58 1264.25L1834.99 1054.11L1788.14 1067.89L2226.35 1397.92L2663.86 1067.89L2617.01 1054.11L2290.42 1264.25L2547.42 1025.86C2561.49 1014.38 2575.26 1003.12 2588.76 992.075C2850.47 777.874 2979.43 614.607 3255.02 409.2C2932.71 629.205 2767.77 760.322 2486.1 1000.36L2633.55 729.586L2617.01 446.406L2603.23 696.514Z" fill="#13161B" stroke="white" stroke-width="6"/>
<path d="M2360.01 1598.42L2226.34 1430.3L2091.99 1598.42L1834.99 1103.23L2226.34 1397.92L2617.01 1103.23L2360.01 1598.42Z" fill="#B5B5B5" stroke="white" stroke-width="6"/>
<path d="M1834.99 1103.23L2091.99 1598.42L2138.15 1690.06L2107.15 1730.02L1868.75 1438.57L1953.5 1447.53C1867.85 1310.49 1822.44 1226.25 1744.04 1068.58H1788.14L1834.99 1103.23Z" fill="#646466" stroke="white" stroke-width="6"/>
<path d="M1953.5 1447.53C1867.85 1310.49 1822.44 1226.25 1744.04 1068.58L1256.92 1769.29L1079.85 1783.76C1054.33 1794.75 1053.78 1802.88 1072.96 1820.28C1197.62 1873.79 1259.63 1908.87 1335.47 1993.91L1382.32 1882.98L1418.15 1876.78L1619.33 1705.21L1449.84 1526.07L1744.04 1426.17L1868.75 1438.57L1953.5 1447.53Z" fill="#13161B" stroke="white" stroke-width="6"/>
<path d="M2091.99 1598.42L2225.65 1430.3V1580.5L2139.53 1688.68L2091.99 1598.42Z" fill="#646466" stroke="white" stroke-width="6"/>
<path d="M2225.65 1880.22L2344.85 1730.02L2582.56 1438.57L2707.96 1426.17L3002.16 1526.07L2832.67 1705.21L3033.86 1876.78L3055.22 1880.22C3026.22 1943.21 3007.64 1970.97 2971.16 2009.06C2954.24 1984.27 2942.84 1972.58 2920.17 1954.63C2937.12 1945.82 2948.77 1935.4 2971.16 1912.6C2971.16 1912.6 2897.01 1948.89 2852.65 1927.76C2838.18 1920.87 2825.67 1902.32 2803.73 1898.13C2785.66 1894.69 2770.02 1894 2749.99 1898.13C2688.24 1910.87 2641.13 2017.33 2641.13 2017.33L2619.77 2022.15L2614.25 2009.75L2818.2 1707.28L2655.59 1797.54C2658.85 1761.75 2659.82 1742.06 2657.66 1708.66C2597.03 1850.59 2598.41 1798.92 2538.46 1881.6L2466.12 1799.61V2100.01L2398.6 2281.91L2226.35 2431.42L2053.4 2281.91L1985.88 2100.01V1799.61L1913.54 1881.6C1853.59 1798.92 1854.97 1850.59 1794.34 1708.66C1792.18 1742.06 1793.15 1761.75 1796.41 1797.54L1633.8 1707.28L1837.75 2009.75L1832.23 2022.15L1810.88 2017.33C1810.88 2017.33 1763.76 1910.87 1702.01 1898.13C1681.99 1894 1666.34 1894.69 1648.27 1898.13C1626.33 1902.32 1613.82 1920.87 1599.35 1927.76C1554.99 1948.89 1480.84 1912.6 1480.84 1912.6C1503.23 1935.4 1514.88 1945.82 1531.83 1954.63C1509.16 1972.58 1497.77 1984.27 1480.84 2009.06C1444.36 1970.97 1425.78 1943.21 1396.79 1880.22L1418.14 1876.78L1619.33 1705.21L1449.84 1526.07L1744.04 1426.17L1869.44 1438.57L2107.15 1730.02L2225.65 1880.22Z" fill="#D9D9D9" stroke="white" stroke-width="6"/>
<path d="M1702.01 1898.13C1763.76 1910.87 1810.87 2017.33 1810.87 2017.33C1818.41 2068.77 1806.74 2112.41 1810.87 2142.73C1815.01 2173.05 1872.31 2232.87 1874.26 2297.76C1875.7 2345.57 1848.08 2412.82 1848.08 2412.82C1757.64 2607.7 1704.87 2693.25 1605.55 2782.81C1605.55 2782.81 1811.56 2423.15 1797.09 2294.31C1790.71 2237.45 1737.15 2177.21 1724.06 2170.65C1678.34 2147.71 1593.15 2174.78 1593.15 2174.78C1544.67 2078 1514.73 2038.23 1453.97 2004.93L1480.84 2009.06C1497.76 1984.27 1509.16 1972.58 1531.83 1954.63C1514.88 1945.82 1503.23 1935.4 1480.84 1912.6C1480.84 1912.6 1554.99 1948.89 1599.35 1927.76C1613.82 1920.87 1626.33 1902.32 1648.27 1898.13C1666.34 1894.69 1681.98 1894 1702.01 1898.13Z" fill="#13161B" stroke="white" stroke-width="6"/>
<path d="M2225.65 1881.6L2344.85 1730.02L2226.34 1580.14L2107.14 1730.02L2225.65 1881.6Z" fill="#13161B" stroke="white" stroke-width="6"/>
<path d="M2161.58 1264.25L1834.99 1054.11L1738.53 1041.7L1560.08 1129.9C1251.62 1293.31 1038.96 1436.96 836.627 1597.72C667.586 1732.03 505.751 1878.28 301.272 2057.98L848.34 1479.91L1274.14 1163.66H1157.7V1138.85L1048.84 1000.36L1863.24 992.075C1876.74 1003.12 1890.51 1014.38 1904.58 1025.86L2161.58 1264.25Z" fill="#13161B" stroke="white" stroke-width="6"/>
<path d="M1738.53 1041.7L1560.08 1129.9C1251.61 1293.31 1038.96 1436.96 836.624 1597.72C699.384 1799.49 655.907 1901.91 672.641 2054.54C859.699 1843.33 1043.1 1733.46 1366.47 1537.1L1080.53 1783.76L1256.92 1769.29L1744.04 1068.58H1788.14L1834.99 1054.11L1738.53 1041.7Z" fill="#13161B" stroke="white" stroke-width="6"/>
<path d="M1600.04 992.075H1863.24C1536.59 818.169 1356.49 719.684 1066.75 533.91L1008.19 603.499C1152.65 678.926 1317.14 813.249 1600.04 992.075Z" fill="#13161B" stroke="white" stroke-width="6"/>
<path d="M1863.24 992.075C1536.59 818.169 1356.49 719.684 1066.75 533.91L898.635 436.071L1066.75 458.808L1863.24 992.075Z" fill="#D9D9D9"/>
<path d="M1008.19 603.499C1152.65 678.926 1317.14 813.249 1600.04 992.075L1008.19 1005.88L1030.4 983.139L1115.88 895.636L1164.01 846.372L1212.13 797.109L988.205 635.193L858.673 764.725L716.738 692.38L569.981 565.604L448.027 635.193L554.823 749.567L348.122 764.725V515.307L682.288 533.91L1008.19 603.499Z" fill="#13161B" stroke="white" stroke-width="6"/>
<path d="M716.741 692.38L858.676 764.725L1115.88 895.636L1030.4 983.139L796.666 909.416L629.238 880.478L645.085 797.109L348.125 764.725L554.826 749.567L637.506 745.433L716.741 692.38Z" fill="#13161B" stroke="white" stroke-width="6"/>
<path d="M637.505 745.433L554.825 749.567L447.34 634.504L570.671 565.604L716.74 692.38L637.505 745.433Z" fill="#646466" stroke="white" stroke-width="6"/>
<path d="M645.084 797.109L348.124 764.725L613.39 873.953L629.237 880.478L645.084 797.109Z" fill="#B5B5B5" stroke="white" stroke-width="6"/>
<path d="M348.123 821.913V764.725L613.389 873.953V1096.14L514.861 994.281L348.123 821.913Z" fill="#13161B" stroke="white" stroke-width="6"/>
<path d="M348.123 952.823V821.913L514.862 994.281C586.791 1123.28 638.922 1187 742.232 1293.19C632.605 1233.87 570.427 1213.3 459.053 1185.02C426.94 1092.62 400.025 1042.18 348.123 952.823Z" fill="#13161B" stroke="white" stroke-width="6"/>
<path d="M742.232 1293.19C632.605 1233.87 570.427 1213.3 459.053 1185.02L439.76 1250.47L659.552 1359.33L742.232 1293.19Z" fill="#13161B" stroke="white" stroke-width="6"/>
<path d="M659.553 1359.33L439.761 1250.47L198.61 1675.59L470.766 1544.68L659.553 1359.33Z" fill="#13161B" stroke="white" stroke-width="6"/>
<path d="M514.861 994.281C586.791 1123.28 638.922 1187 742.232 1293.19L973.048 1163.66L1037.12 1136.1L726.385 1065.82V932.153L612.011 872.899V1096.82L514.861 994.281Z" fill="#13161B" stroke="white" stroke-width="6"/>
<path d="M726.386 932.153L612.012 872.899L629.926 880.478L795.975 909.416L1030.24 983.139L1008.88 1005.19H1052.28L1154.95 1136.1H1037.13L726.386 1065.82V932.153Z" fill="#B5B5B5" stroke="white" stroke-width="6"/>
<path d="M988.207 635.193L1212.13 797.109L1115.88 895.636L858.675 764.726L988.207 635.193Z" fill="#646466" stroke="white" stroke-width="6"/>
<path d="M1965.9 1000.36C1684.22 760.322 1519.29 629.205 1196.97 409.2L1254.85 361.659H1287.92L1730.95 441.583L1523.56 262.443L1594.53 214.213L1834.99 446.406L1818.45 729.586L1965.9 1000.36Z" fill="#B5B5B5" stroke="white" stroke-width="6"/>
<path d="M1730.95 441.583L1287.92 361.659L1456.04 204.567L1523.56 262.443L1730.95 441.583Z" fill="#13161B" stroke="white" stroke-width="6"/>
<path d="M1832.92 2022.84L1902.51 2086.23C1902.51 2086.23 1924.33 2047.15 1930.76 2016.64C1940.17 1972.03 1937.86 1940.54 1921.11 1898.13C1900.87 1846.85 1861.02 1835.33 1832.92 1787.89C1815.13 1757.87 1794.34 1707.28 1794.34 1707.28C1794.34 1707.28 1791.22 1756.52 1796.53 1797.54C1797.54 1805.32 1798.85 1812.8 1800.54 1819.59C1814.24 1874.6 1854.28 1888.49 1854.28 1948.43C1854.28 1969.93 1844.93 1995.56 1838.6 2010.44C1835.37 2018.05 1832.92 2022.84 1832.92 2022.84Z" fill="#646466" stroke="white" stroke-width="6"/>
<path d="M1800.54 1819.59C1814.24 1874.6 1854.28 1888.49 1854.28 1948.43C1854.28 1969.93 1844.93 1995.56 1838.6 2010.44L1633.11 1707.28L1796.53 1797.54C1797.54 1805.32 1798.85 1812.8 1800.54 1819.59Z" fill="#13161B" stroke="white" stroke-width="6"/>
<path d="M1549.07 2013.89C1549.07 1998.66 1562.16 1979.17 1575.94 1985.64C1584.34 1989.58 1587.65 2006.31 1587.65 2006.31C1587.65 2006.31 1610.69 2050.88 1637.95 2058.67C1662.46 2065.67 1675.14 2058.67 1702.03 2064.18C1727.22 2069.35 1748.08 2077.27 1746.12 2095.19C1743.62 2118.11 1723.14 2125.18 1702.03 2134.46C1680.92 2143.74 1657.03 2140.74 1626.93 2127.57C1578.31 2106.3 1549.07 2040.07 1549.07 2013.89Z" fill="#F8CBA1" stroke="white" stroke-width="6"/>
<path d="M1625.53 1978.75C1619.33 1975.3 1618.93 1967.03 1622.09 1958.77C1624.19 1953.25 1643.58 1958.63 1659.98 1966.35C1675.82 1973.8 1682.03 1984.26 1687.54 1992.53C1691.68 1998.72 1698.5 2008.75 1691.68 2019.4C1686.82 2026.98 1668.25 2030.51 1659.98 2028.36C1649.36 2025.59 1643.49 2029.24 1638.62 2019.4C1633.97 2009.99 1627.06 1999.18 1635.18 1992.53C1639.87 1988.68 1647.78 1994.59 1650.33 1989.08C1651.69 1986.15 1651.22 1983.92 1650.33 1980.81C1649.15 1976.68 1633.73 1983.3 1625.53 1978.75Z" fill="#F8CBA1" stroke="white" stroke-width="6"/>
<path d="M1549.06 2013.89C1549.06 1998.66 1562.15 1979.17 1575.94 1985.64C1584.33 1989.58 1587.65 2006.31 1587.65 2006.31C1587.65 2006.31 1610.68 2050.88 1637.95 2058.67C1662.45 2065.67 1675.14 2058.67 1702.02 2064.18C1727.22 2069.35 1748.07 2077.27 1746.12 2095.19C1743.62 2118.11 1723.13 2125.18 1702.02 2134.46C1680.91 2143.74 1657.02 2140.74 1626.92 2127.57C1578.31 2106.3 1549.06 2040.07 1549.06 2013.89Z" fill="#F2F1F1" stroke="white" stroke-width="6"/>
<path d="M1625.53 1978.75C1619.33 1975.3 1618.93 1967.03 1622.09 1958.77C1624.19 1953.25 1643.58 1958.63 1659.98 1966.35C1675.82 1973.8 1682.03 1984.26 1687.54 1992.53C1691.67 1998.72 1698.5 2008.75 1691.67 2019.4C1686.81 2026.98 1668.25 2030.51 1659.98 2028.36C1649.35 2025.59 1643.49 2029.24 1638.62 2019.4C1633.96 2009.99 1627.06 1999.18 1635.17 1992.53C1639.87 1988.68 1647.78 1994.59 1650.33 1989.08C1651.69 1986.15 1651.22 1983.92 1650.33 1980.81C1649.15 1976.68 1633.72 1983.3 1625.53 1978.75Z" fill="#F2F1F1" stroke="white" stroke-width="6"/>
<path d="M1150.35 1181.65C1156.19 1178.44 1162.08 1175.19 1168.04 1171.93C1167.95 1170.77 1161.62 1174.38 1150.35 1181.65C888.454 1325.99 740.01 1420.06 504.526 1530.9C504.526 1530.9 617.198 1510.4 714.672 1459.93C859.14 1385.12 1085.8 1223.31 1150.35 1181.65Z" fill="#13161B"/>
<path d="M1168.04 1171.93C895.029 1321.81 745.259 1417.58 504.526 1530.9C504.526 1530.9 617.197 1510.4 714.672 1459.93C884.37 1372.06 1167.48 1164.14 1168.04 1171.93Z" stroke="white" stroke-width="6"/>
<path d="M1921.11 2297.07L1985.88 2102.08L2053.4 2281.91L2225.65 2430.73L2050.65 2551.31L1944.54 2673.26C1944.54 2673.26 1885 2419.22 1885.29 2393.53C1885.73 2353.34 1921.11 2297.07 1921.11 2297.07Z" fill="#B5B5B5" stroke="white" stroke-width="6"/>
<path d="M2401.35 2551.31C2449.24 2592.44 2507.46 2673.26 2507.46 2673.26C2509.9 2714.6 2511.08 2737.73 2507.46 2777.3C2507.46 2777.3 2480.67 2760.42 2462.67 2751.12C2446.63 2742.83 2431.67 2732.18 2420.64 2731.83C2406.86 2731.38 2388.15 2749.18 2367.59 2760.76C2348.89 2771.3 2338.85 2777.98 2320.05 2788.33C2301.17 2798.71 2292.18 2809.23 2271.13 2813.82C2254.04 2817.55 2226.34 2813.82 2226.34 2813.82C2226.34 2813.82 2197.95 2817.55 2180.87 2813.82C2159.82 2809.23 2150.82 2798.71 2131.95 2788.33C2113.14 2777.98 2103.1 2771.3 2084.41 2760.76C2063.84 2749.18 2045.13 2731.38 2031.35 2731.83C2020.33 2732.18 2005.37 2742.83 1989.32 2751.12C1971.32 2760.42 1944.54 2777.3 1944.54 2777.3C1940.91 2737.73 1942.1 2714.6 1944.54 2673.26C1944.54 2673.26 2002.75 2592.44 2050.64 2551.31C2109.21 2501.01 2226.34 2430.73 2226.34 2430.73C2226.34 2430.73 2342.78 2501.01 2401.35 2551.31Z" fill="#D9D9D9" stroke="white" stroke-width="6"/>
<path d="M1887.92 2414.2C1837.39 2582.9 1804.06 2665.31 1738.41 2790.39L1791.58 2786.26C1791.58 2786.26 1788.92 2751.24 1801.91 2735.96C1810.97 2725.31 1819.08 2720.08 1832.92 2718.05C1847.19 2715.95 1855.57 2721.14 1868.75 2727C1900.26 2741.04 1927.31 2793.15 1927.31 2793.15L1944.42 2777.3C1940.47 2736.67 1944.42 2707.71 1944.42 2673.26C1944.42 2637.55 1899.75 2470.69 1887.92 2414.2Z" fill="#F2F1F1" stroke="white" stroke-width="6"/>
<path d="M2180.87 2813.82C2197.96 2817.55 2225.65 2813.82 2225.65 2813.82V2872.38C2225.65 2872.38 2195.97 2875.66 2177.42 2872.38C2150.62 2867.66 2139.01 2854.24 2114.03 2843.45C2097.98 2836.51 2089.42 2831.34 2072.69 2826.22C2055.64 2821 2045.73 2816.57 2027.91 2817.26C2012.97 2817.84 2004.3 2820.02 1990.7 2826.22C1977.18 2832.38 1970.52 2838.08 1959.7 2848.27C1947.98 2859.3 1941.1 2880.65 1934.2 2880.65C1927.31 2880.65 1918.18 2862.86 1909.4 2850.34C1897.37 2833.17 1894.93 2820.86 1883.22 2803.48C1871.45 2786.02 1866.78 2773.42 1849.46 2761.45C1837.86 2753.44 1824.65 2742.16 1816.39 2746.98C1808.15 2751.79 1809.48 2760.7 1811.54 2774.39L1811.56 2774.54C1813.63 2788.33 1826.39 2805.98 1835.68 2826.22C1852.25 2862.35 1855.98 2885.51 1877.02 2919.24C1889.64 2939.46 1895.5 2952.56 1913.53 2968.15C1939.03 2990.2 1977.68 2999.1 2017.57 3021.21C2053.46 3041.09 2077.34 3047.5 2107.83 3074.95C2132.29 3096.96 2138.28 3116.5 2160.89 3140.41C2182.51 3163.27 2210.49 3201.73 2210.49 3214.13V3360.2C2210.49 3367.78 2181.56 3376.73 2169.84 3381.56C2158.13 3386.38 2098.78 3419.16 2052.71 3442.19L2051.02 3443.04C2019.67 3458.71 2001.57 3467.75 1969.34 3482.84C1930.4 3501.07 1907.06 3508.09 1868.75 3527.62C1842.13 3541.19 1814.32 3573.79 1801.91 3564.83C1789.72 3556.02 1796.42 3515.8 1801.65 3484.43L1801.91 3482.84C1807.75 3447.83 1818.71 3429.93 1832.92 3397.4C1845.35 3368.95 1853.45 3353.45 1868.75 3326.44C1886.88 3294.42 1919.74 3247.2 1919.74 3247.2C1919.74 3247.2 1899.72 3225.93 1885.29 3214.13C1856.17 3190.32 1835.74 3182.35 1801.91 3165.9C1758.72 3144.9 1728.5 3146.41 1686.85 3122.49C1645.06 3098.48 1625.33 3078.56 1591.08 3044.63C1566.43 3020.21 1532.52 2977.8 1532.52 2977.8C1550.48 2929.45 1560.89 2888.23 1588.33 2857.91C1588.33 2857.91 1596.04 2930.76 1615.89 2955.75C1638.86 2984.69 1664.39 2989.13 1699.94 2999.16C1753.69 3014.32 1789.71 3017.26 1840.5 3044.63C1877.31 3064.47 1927.31 3107.33 1927.31 3107.33C1877.07 2975.15 1847.13 2904.77 1791.58 2786.26C1791.58 2786.26 1788.93 2751.24 1801.91 2735.96C1810.97 2725.31 1819.08 2720.08 1832.92 2718.05C1847.19 2715.95 1855.57 2721.14 1868.75 2727C1900.26 2741.04 1927.31 2793.15 1927.31 2793.15L1944.54 2777.3C1944.54 2777.3 1971.33 2760.42 1989.32 2751.12C2005.37 2742.83 2020.33 2732.18 2031.35 2731.83C2045.13 2731.38 2063.84 2749.18 2084.41 2760.76C2103.1 2771.3 2113.15 2777.98 2131.95 2788.33C2150.82 2798.71 2159.82 2809.23 2180.87 2813.82Z" fill="#F2F1F1" stroke="white" stroke-width="6"/>
<path d="M1868.75 3527.62C1842.13 3541.19 1814.32 3573.79 1801.91 3564.83C1801.91 3564.83 1767.34 3553.6 1746.11 3544.16C1719.81 3532.47 1705.36 3524.86 1681.34 3509.02C1654.19 3491.12 1640.1 3479.12 1616.57 3456.66C1609.97 3450.35 1604.17 3446.32 1600.04 3440.12C1591.77 3427.72 1584.52 3414.95 1575.92 3398.09C1568.26 3383.08 1564.72 3374.28 1558.01 3358.82C1556.38 3355.06 1553.88 3349.17 1553.88 3349.17L1551.81 3351.24V3342.97C1551.81 3342.97 1545.93 3328 1542.85 3318.17C1538.05 3302.85 1536.4 3293.94 1533.21 3278.21C1531.41 3269.36 1530.41 3264.39 1529.07 3255.47C1527.15 3242.63 1526.75 3235.33 1525.63 3222.4C1524.65 3211.11 1524.24 3204.77 1523.56 3193.46C1522.9 3182.43 1522.18 3165.21 1522.18 3165.21L1289.99 2777.3L1117.05 3136.96L1243.82 3203.79L883.476 4096.74C883.476 4096.74 1359.58 3499.38 1417.45 3453.21C1445.39 3430.93 1499.44 3412.56 1499.44 3412.56L1487.73 4279.33L1584.88 4045.07C1584.88 4045.07 1629.65 3990.95 1653.09 3952.74C1686.06 3899 1705.6 3827 1736.46 3745.35C1751.96 3704.34 1752.9 3677.77 1775.04 3639.93C1791.58 3611.68 1862.19 3584.3 1921.8 3555.87C1962.31 3536.56 1984.58 3523.43 2027.91 3511.78C2089.41 3495.24 2126.83 3500.23 2190.51 3499.38C2204.23 3499.19 2225.65 3499.38 2225.65 3499.38V3223.77C2225.65 3223.77 2218.21 3210.27 2213.25 3201.73C2204.21 3186.16 2200.07 3176.75 2189.14 3162.45C2178.38 3148.39 2166.29 3145.09 2158.13 3129.38C2152.56 3118.66 2149.17 3099.75 2149.17 3099.75C2149.17 3099.75 2153.93 3049.12 2149.17 3021.21C2145.77 3001.26 2141.67 2992.83 2131.95 2977.11C2120.04 2957.86 2108.68 2950.28 2091.3 2935.77C2074.05 2921.38 2062.75 2915.38 2043.76 2903.39C2033.65 2897.01 2025.79 2896.22 2017.57 2887.54C2012.65 2882.34 2005.73 2879.39 2007.24 2872.38C2009.03 2864.07 2019.53 2866.96 2027.91 2865.49C2037.71 2863.77 2062.91 2867.81 2072.69 2869.63C2131.95 2880.65 2166.4 2919.24 2189.14 2942.66C2202.19 2956.11 2209.27 2972.58 2213.25 2990.89C2220.14 3022.59 2225.65 3136.27 2225.65 3136.27V2872.38C2225.65 2872.38 2195.97 2875.65 2177.42 2872.38C2150.62 2867.66 2139.01 2854.24 2114.03 2843.45C2097.98 2836.51 2089.42 2831.34 2072.69 2826.22C2055.64 2821 2045.73 2816.57 2027.91 2817.26C2012.97 2817.84 2004.3 2820.02 1990.7 2826.22C1977.18 2832.38 1970.52 2838.08 1959.7 2848.27C1947.98 2859.3 1941.1 2880.65 1934.2 2880.65C1927.31 2880.65 1918.18 2862.86 1909.4 2850.34C1897.37 2833.17 1894.93 2820.86 1883.22 2803.48C1871.45 2786.02 1866.78 2773.42 1849.46 2761.45C1837.86 2753.44 1824.65 2742.16 1816.38 2746.98C1808.15 2751.79 1809.48 2760.7 1811.54 2774.39L1811.56 2774.54C1813.63 2788.33 1826.39 2805.98 1835.68 2826.22C1852.25 2862.35 1855.98 2885.51 1877.02 2919.24C1889.64 2939.46 1895.5 2952.56 1913.53 2968.15C1939.03 2990.2 1977.68 2999.1 2017.57 3021.21C2053.46 3041.09 2081.65 3051.38 2107.83 3074.95C2134.01 3098.52 2139.26 3117.54 2160.89 3140.41C2182.51 3163.27 2210.49 3201.73 2210.49 3214.13V3360.2C2210.49 3367.78 2181.56 3376.73 2169.84 3381.56C2158.13 3386.38 2098.78 3419.16 2052.71 3442.19L2051.02 3443.04C2019.67 3458.71 2001.57 3467.75 1969.34 3482.84C1930.4 3501.07 1907.06 3508.09 1868.75 3527.62Z" fill="#13161B" stroke="white" stroke-width="6"/>
<path d="M2190.51 3499.38C2126.83 3500.23 2060.29 3496.99 2027.91 3511.78C1890.76 3574.4 1838.1 3630.07 1807.43 3783.24H1900.44C1900.44 3783.24 1903.62 3731.34 1914.91 3700.56C1923.28 3677.74 1929.65 3665.18 1943.85 3645.44C1963.08 3618.72 1977.3 3605.11 2005.17 3587.57C2031.85 3570.77 2049.71 3565.7 2080.27 3557.94C2114.11 3549.34 2134.27 3549.76 2169.15 3548.29C2191.2 3547.37 2225.65 3548.29 2225.65 3548.29V3499.38C2225.65 3499.38 2204.23 3499.19 2190.51 3499.38Z" fill="#D9D9D9" stroke="white" stroke-width="6"/>
<path d="M1914.91 3700.56C1903.62 3731.34 1900.44 3783.24 1900.44 3783.24V4082.27L1972.1 3914.84L2089.92 3790.13L2225.65 3548.29C2225.65 3548.29 2191.2 3547.37 2169.15 3548.29C2134.27 3549.76 2114.11 3549.34 2080.27 3557.94C2049.71 3565.7 2031.85 3570.77 2005.17 3587.57C1977.3 3605.11 1963.08 3618.72 1943.85 3645.44C1929.65 3665.18 1923.28 3677.74 1914.91 3700.56Z" fill="#F2F1F1" stroke="white" stroke-width="6"/>
<path d="M2089.92 3790.13L2225.65 3548.29V3804.6H2076.25L2089.92 3790.13Z" fill="#D9D9D9" stroke="white" stroke-width="6"/>
<path d="M2076.25 3804.6H2225.65V3902.44L2192.58 4219.38L2042.38 3840.43L2076.25 3804.6Z" fill="#D9D9D9"/>
<path d="M2089.92 3790.13L2076.25 3804.6M2076.25 3804.6H2225.65V3902.44L2192.58 4219.38L2042.38 3840.43L2076.25 3804.6Z" stroke="white" stroke-width="6"/>
<path d="M2042.38 3840.43L2117.48 4029.91L2099.57 4140.84C2066.55 4074.61 2051.47 4025.81 2023.09 3943.78C2006.55 4010.14 1996.97 4045.19 1978.3 4096.05C1969.51 4030.02 1969.01 3991.06 1969.34 3921.04L1972.1 3914.84L2042.38 3840.43Z" fill="#B5B5B5" stroke="white" stroke-width="6"/>
<path d="M1807.43 3783.24C1838.1 3630.07 1890.76 3574.4 2027.91 3511.78C1875.05 3563.2 1810.23 3616.2 1757.13 3783.24H1807.43Z" fill="#646466" stroke="white" stroke-width="6"/>
<path d="M1653.09 3952.74C1629.65 3990.95 1584.88 4045.07 1584.88 4045.07C1718.97 3990.28 1782.86 3923.94 1900.44 3817.01V3783.24H1757.13C1796.24 3660.23 1841.7 3599.06 1924 3554.82C1936.19 3548.99 1946.73 3543.72 1956.76 3538.89C1978.15 3529.43 2001.74 3520.58 2027.91 3511.78C1998.61 3519.66 1978.95 3528.21 1956.76 3538.89C1945.22 3543.99 1934.32 3549.27 1924 3554.82C1923.28 3555.17 1922.54 3555.52 1921.8 3555.87C1862.19 3584.3 1791.58 3611.68 1775.05 3639.93C1752.9 3677.77 1751.96 3704.34 1736.46 3745.35C1705.6 3827 1686.06 3899 1653.09 3952.74Z" fill="#B5B5B5" stroke="white" stroke-width="6"/>
<path d="M2551.56 4082.27L2482.66 3921.04C2483 3991.06 2482.49 4030.02 2473.7 4096.05C2455.03 4045.19 2445.45 4010.14 2428.91 3943.78C2400.54 4025.81 2385.45 4074.61 2352.43 4140.84L2334.52 4029.91L2259.42 4219.38L2224.97 3901.06V4458.81V5016.56C2342.54 4878.68 2436.02 4761.65 2520.44 4641.5C2639.89 4471.52 2741.23 4295.31 2867.12 4045.07C2733.03 3990.28 2669.13 3923.94 2551.56 3817.01V4082.27Z" fill="#13161B"/>
<path d="M2867.12 4045.07L2964.27 4279.33C2694.03 4816.41 2524.63 5066.75 2224.97 5513.33V5013.8C2508.89 4680.87 2652.25 4472.2 2867.12 4045.07Z" fill="#13161B"/>
<path d="M1900.44 4082.27L1969.34 3921.04C1969 3991.06 1969.51 4030.02 1978.3 4096.05C1996.97 4045.19 2006.55 4010.14 2023.09 3943.78C2051.46 4025.81 2066.55 4074.61 2099.57 4140.84L2117.48 4029.91L2192.58 4219.38L2225.66 3902.44V4458.81V5015.18C2108.36 4877.64 2015.29 4761.07 1931.3 4641.5C1811.98 4471.64 1710.99 4295.74 1584.88 4045.07C1718.97 3990.28 1782.87 3923.94 1900.44 3817.01V4082.27Z" fill="#13161B"/>
<path d="M1584.88 4045.07L1487.73 4279.33C1757.86 4816.19 1925.85 5066.55 2225.29 5512.79L2225.66 5513.33V5015.18C2108.36 4877.64 2015.29 4761.07 1931.3 4641.5C1811.98 4471.64 1710.99 4295.74 1584.88 4045.07Z" fill="#13161B"/>
<path d="M2867.12 4045.07C2867.12 4045.07 2822.35 3990.95 2798.91 3952.74M2867.12 4045.07C2733.03 3990.28 2669.13 3923.94 2551.56 3817.01V4082.27L2482.66 3921.04C2483 3991.06 2482.49 4030.02 2473.7 4096.05C2455.03 4045.19 2445.45 4010.14 2428.91 3943.78C2400.54 4025.81 2385.45 4074.61 2352.43 4140.84L2334.52 4029.91L2259.42 4219.38L2224.97 3901.06V4458.81M2867.12 4045.07L2964.27 4279.33C2694.03 4816.41 2524.63 5066.75 2224.97 5513.33V5013.8C2508.89 4680.87 2652.25 4472.2 2867.12 4045.07ZM2867.12 4045.07C2741.23 4295.31 2639.89 4471.52 2520.44 4641.5M2867.12 4045.07L2225.66 4458.81M1584.88 4045.07C1584.88 4045.07 1629.65 3990.95 1653.09 3952.74M1584.88 4045.07C1718.97 3990.28 1782.87 3923.94 1900.44 3817.01V4082.27L1969.34 3921.04C1969 3991.06 1969.51 4030.02 1978.3 4096.05C1996.97 4045.19 2006.55 4010.14 2023.09 3943.78C2051.46 4025.81 2066.55 4074.61 2099.57 4140.84L2117.48 4029.91L2192.58 4219.38L2225.66 3902.44V4458.81M1584.88 4045.07L1487.73 4279.33C1757.86 4816.19 1925.85 5066.55 2225.29 5512.79L2225.66 5513.33V5015.18M1584.88 4045.07C1710.99 4295.74 1811.98 4471.64 1931.3 4641.5M1584.88 4045.07L2225.66 4458.81M2225.66 5015.18C2108.36 4877.64 2015.29 4761.07 1931.3 4641.5M2225.66 5015.18V4458.81M2224.97 4458.81V5016.56C2342.54 4878.68 2436.02 4761.65 2520.44 4641.5M2224.97 4458.81L2520.44 4641.5M2224.97 4458.81L1931.3 4641.5" stroke="white" stroke-width="6"/>
<path d="M1499.45 3412.56C1499.45 3412.56 1445.4 3430.93 1417.46 3453.21C1397.38 3469.23 1326.96 3551.59 1243.55 3652.33L1487.74 4279.33L1499.45 3412.56Z" fill="#646466" stroke="white" stroke-width="6"/>
<path d="M1487.73 4279.33L883.479 4096.74C883.479 4096.74 1086.53 3841.97 1243.54 3652.33L1487.73 4279.33Z" fill="#646466" stroke="white" stroke-width="6"/>
<path d="M1591.08 3044.63C1566.43 3020.21 1532.52 2977.8 1532.52 2977.8C1507.64 3237.79 1527.86 3320.56 1601.42 3442.88C1601.42 3442.88 1603.57 3413.72 1621.4 3392.58C1642.79 3367.22 1668.53 3370.86 1699.95 3360.2C1763.61 3338.59 1868.75 3326.44 1868.75 3326.44C1886.88 3294.42 1919.74 3247.2 1919.74 3247.2C1919.74 3247.2 1899.73 3225.93 1885.29 3214.13C1856.17 3190.32 1835.74 3182.35 1801.92 3165.9C1758.73 3144.9 1728.5 3146.41 1686.86 3122.49C1645.06 3098.48 1625.33 3078.56 1591.08 3044.63Z" fill="#646466" stroke="white" stroke-width="6"/>
<path d="M1738.53 2790.39C1648.53 2811.19 1632.53 2822.14 1587.64 2857.91L1591.08 2877.9C1591.08 2877.9 1596.05 2930.76 1615.89 2955.75C1638.86 2984.69 1664.39 2989.13 1699.95 2999.16C1753.69 3014.32 1789.72 3017.26 1840.5 3044.63C1877.32 3064.47 1927.32 3107.33 1927.32 3107.33C1877.07 2975.15 1847.13 2904.77 1791.58 2786.26L1738.53 2790.39Z" fill="#D9D9D9" stroke="white" stroke-width="6"/>
<path d="M1454.66 2004.93L1480.15 2009.06C1439.91 1962.2 1420.68 1934.41 1396.78 1880.22L1382.31 1882.98L1335.46 1993.22L1356.13 2034.56C1327.98 2087.59 1264.64 2131.8 1159.77 2208.19C1201.99 2278.34 1231.13 2312.27 1289.3 2366.66L1436.75 2115.17L1481.53 2225.75L1526.32 2336.34L1568.35 2405.93C1565.57 2341.67 1566.17 2305.7 1580.06 2241.95C1499.14 2139.16 1469.98 2091.36 1443.64 2021.47C1443.64 2021.47 1455.09 2018.36 1462.93 2018.71C1470.31 2019.04 1482.22 2022.84 1482.22 2022.84L1454.66 2004.93Z" fill="#B5B5B5" stroke="white" stroke-width="6"/>
<path d="M1436.75 2115.17L1526.32 2336.34C1505.9 2310.01 1494.4 2295.52 1471.89 2284.66C1403.45 2328.94 1363.98 2349.02 1289.3 2366.66L1436.75 2115.17Z" fill="#646466" stroke="white" stroke-width="6"/>
<path d="M1139.1 1676.28C1226.39 1619.96 1365.78 1537.1 1365.78 1537.1L1080.53 1783.76C1080.53 1783.76 1071.32 1786.73 1066.75 1790.65C1063.12 1793.77 1059.71 1795.54 1059.18 1800.3C1058.73 1804.27 1060.62 1806.48 1062.62 1809.94C1065.48 1814.88 1072.96 1820.28 1072.96 1820.28L1154.95 2078.65L1151.5 2254.35L1267.25 2591.27L1289.99 2777.3L1117.05 3137.65C1057.94 2957.72 1021.34 2836.72 1007.5 2600.23L1139.1 2238.5V2080.72L1028.86 1867.13C795.557 2134.52 661.693 2280.26 414.958 2529.26C374.841 2337.06 346.107 2239.32 285.426 2080.72L301.962 2057.29L414.958 2004.24L669.2 1999.42C669.247 2020.7 669.655 2032.61 672.645 2053.85C672.645 2053.85 737.052 1983.84 781.507 1942.23C846.002 1881.87 885.563 1851.54 956.514 1798.92C1025.51 1747.75 1066.92 1722.84 1139.1 1676.28Z" fill="#13161B" stroke="white" stroke-width="6"/>
<path d="M1159.77 2208.19C1201.99 2278.34 1231.13 2312.27 1289.3 2366.66L1289.99 2777.3L1267.25 2591.27L1151.5 2254.35L1152.19 2213.01L1159.77 2208.19Z" fill="#646466" stroke="white" stroke-width="6"/>
<path d="M471.454 1544.68L821.467 1507.47L328.83 2029.04L471.454 1544.68Z" fill="#646466" stroke="white" stroke-width="6"/>
<path d="M453.539 2795.9L1028.86 1867.13L758.767 2170.29L453.539 2795.9Z" fill="#646466" stroke="white" stroke-width="6"/>
<path d="M627.859 3456.66L1011.63 2658.1C1011.63 2658.1 1018.9 2738.58 1026.79 2789.7C1035.28 2844.72 1040.95 2875.54 1054.35 2929.57C1061.2 2957.19 1065.74 2972.51 1073.64 2999.85C1086.17 3043.18 1108.09 3110.09 1108.09 3110.09L622.347 3880.39L627.859 3456.66Z" fill="#13161B" stroke="white" stroke-width="6"/>
<path d="M1580.06 2241.95C1657.86 2247.62 1701.98 2248.88 1781.94 2246.08C1781.94 2246.08 1760.05 2258.25 1748.18 2268.82C1728.43 2286.39 1723.05 2301.61 1708.9 2323.94C1689.31 2354.85 1680.8 2373.7 1664.81 2406.62C1641.38 2454.85 1640.98 2473.45 1630.36 2517.55C1621.23 2555.44 1606.93 2780.75 1606.93 2780.75L1588.33 2857.23L1568.35 2403.86C1564.71 2339.62 1566.91 2304.12 1580.06 2241.95Z" fill="#D9D9D9" stroke="white" stroke-width="6"/>
<path d="M1526.32 2336.34L1568.35 2405.93L1583.83 2755.25L1289.3 2366.66C1363.98 2349.02 1403.45 2328.94 1471.88 2284.66C1494.4 2295.52 1505.9 2310.01 1526.32 2336.34Z" fill="#B5B5B5" stroke="white" stroke-width="6"/>
<path d="M1606.92 2780.75C1606.92 2780.75 1815.1 2422.71 1797.09 2294.31C1794.17 2273.49 1791 2262.91 1781.94 2246.08C1781.94 2246.08 1760.04 2258.25 1748.17 2268.82C1728.42 2286.39 1723.04 2301.61 1708.89 2323.94C1689.3 2354.85 1680.79 2373.7 1664.8 2406.62C1641.37 2454.85 1640.97 2473.45 1630.35 2517.55C1621.22 2555.44 1606.92 2780.75 1606.92 2780.75Z" fill="#B5B5B5" stroke="white" stroke-width="6"/>
<path d="M1583.51 2754.56L1289.3 2366.66C1376.12 2571.29 1456.73 2653.97 1567.66 2888.23C1574.5 2875.34 1579.08 2868.44 1588.33 2856.54L1583.51 2754.56Z" fill="#D9D9D9" stroke="white" stroke-width="6"/>
<path d="M1289.3 2366.66V2777.3L1522.18 3165.21C1523.56 3093.96 1525.46 3053.19 1532.52 2977.8C1545.5 2939.35 1552.9 2918.31 1567.66 2888.23C1456.73 2653.97 1376.11 2571.29 1289.3 2366.66Z" fill="#13161B" stroke="white" stroke-width="6"/>
<path d="M1808.12 3120.42C1707.37 3152.76 1586.81 3199.71 1529.76 3250.65V3259.6C1588.34 3208.53 1635.18 3194.84 1753.69 3147.98L1808.12 3120.42Z" fill="#13161B"/>
<path d="M1831.55 3221.71C1959.7 3193.46 1949.36 3207.51 1998.97 3183.12C1965.21 3207.93 1930.61 3214.34 1859.79 3226.53C1775.74 3241 1692.6 3270.41 1635.18 3296.12C1580.46 3320.62 1568.96 3335.24 1551.81 3350.55V3343.66C1593.84 3291.3 1703.39 3249.96 1831.55 3221.71Z" fill="#13161B"/>
<path d="M1990.7 3305.08C1990.7 3305.08 1916.13 3319.19 1868.06 3326.44C1844.96 3329.92 1831.85 3330.83 1808.81 3334.7C1785.55 3338.62 1772.53 3341.1 1749.55 3346.42C1720.47 3353.14 1704.29 3357.8 1676.07 3365.93L1674.45 3366.4C1660.71 3370.36 1645.12 3374.02 1639.31 3377.42C1633.51 3380.82 1625.53 3387.76 1625.53 3387.76C1702.16 3449.24 1741.58 3483.58 1794.34 3544.16C1815.25 3416.16 1883.14 3379.27 1990.7 3305.08Z" fill="#646466" stroke="white" stroke-width="6"/>
<path d="M1803.3 3565.52C1709.08 3534.34 1666.27 3505.42 1600.73 3441.5C1606.55 3413.77 1612.26 3402.47 1625.53 3387.76C1693.81 3440.78 1731.12 3474.13 1795.03 3544.16C1795.51 3555.42 1797.06 3560.39 1803.3 3565.52Z" fill="#646466" stroke="white" stroke-width="6"/>
<path d="M1243.83 3203.79L1117.05 3136.96C1078.18 3444.19 939.471 3637.38 605.12 3997.52L883.48 4435.73V4096.74L1243.83 3203.79Z" fill="#13161B" stroke="white" stroke-width="6"/>
<path d="M1487.04 5036.54V4278.64L1719.93 4716.15L1487.04 5036.54Z" fill="#13161B" stroke="white" stroke-width="6"/>
<path d="M1487.05 5035.16C1217.83 4667.11 1068.79 4460.85 883.479 4096.74L1487.73 4279.33L1487.05 5035.16Z" fill="#13161B" stroke="white" stroke-width="6"/>
</svg>
